<svg width="84" height="102" viewBox="0 0 84 102" fill="none" xmlns="http://www.w3.org/2000/svg" xmlns:xlink="http://www.w3.org/1999/xlink">
<path d="M73.131,27.175C73.665,24.419 73.504,21.548 72.668,18.891C71.832,16.235 70.354,13.903 68.405,12.164C66.456,10.425 64.116,9.351 61.655,9.065C59.193,8.778 56.711,9.292 54.495,10.547C53.668,7.492 52.005,4.82 49.75,2.922C47.495,1.024 44.766,0 41.964,0C39.161,0 36.432,1.024 34.177,2.922C31.922,4.82 30.259,7.492 29.432,10.547C27.216,9.292 24.734,8.778 22.273,9.065C19.811,9.351 17.471,10.425 15.522,12.164C13.573,13.903 12.095,16.235 11.259,18.891C10.423,21.548 10.263,24.419 10.796,27.175C7.571,27.836 4.68,29.85 2.692,32.82C0.703,35.791 -0.239,39.503 0.052,43.225C0.342,46.948 1.843,50.412 4.26,52.936C6.677,55.459 9.835,56.859 13.111,56.86L13.373,56.86C14.069,60.748 16.09,64.162 18.993,66.351C21.895,68.539 25.44,69.322 28.849,68.529C32.257,67.735 35.25,65.43 37.169,62.119C39.087,58.809 39.774,54.764 39.078,50.876L42.226,50.876C41.571,54.773 42.3,58.807 44.253,62.09C46.205,65.374 49.221,67.638 52.637,68.385C56.053,69.132 59.59,68.3 62.468,66.073C65.347,63.846 67.332,60.405 67.987,56.508C69.694,56.95 71.461,56.997 73.184,56.647C74.907,56.297 76.551,55.557 78.02,54.471C79.489,53.385 80.752,51.974 81.735,50.322C82.718,48.671 83.402,46.811 83.745,44.853C84.089,42.895 84.085,40.879 83.734,38.923C83.384,36.967 82.694,35.11 81.705,33.463C80.715,31.816 79.447,30.412 77.975,29.332C76.502,28.253 74.855,27.521 73.131,27.179L73.131,27.175Z" fill="#FFFFFF"/>
<path d="M34,100.874L51.171,100.874L48.718,42L36.453,42L34,100.874Z" fill="#FFFFFF"/>
</svg>
