<svg width="40" height="46" viewBox="0 0 40 46" fill="none" xmlns="http://www.w3.org/2000/svg" xmlns:xlink="http://www.w3.org/1999/xlink">
<path d="M34.824,11.578C35.078,10.404 35.002,9.18 34.604,8.048C34.206,6.917 33.502,5.923 32.574,5.182C31.646,4.442 30.531,3.984 29.359,3.862C28.187,3.74 27.005,3.959 25.95,4.493C25.556,3.192 24.764,2.054 23.691,1.245C22.617,0.436 21.317,0 19.983,0C18.648,0 17.349,0.436 16.275,1.245C15.201,2.054 14.409,3.192 14.015,4.493C12.96,3.959 11.778,3.74 10.606,3.862C9.434,3.984 8.32,4.442 7.391,5.182C6.464,5.923 5.76,6.917 5.362,8.048C4.963,9.18 4.887,10.404 5.141,11.578C3.605,11.859 2.229,12.717 1.282,13.983C0.335,15.248 -0.114,16.83 0.025,18.416C0.163,20.002 0.878,21.477 2.029,22.552C3.18,23.628 4.683,24.224 6.243,24.224L6.368,24.224C6.7,25.881 7.662,27.335 9.044,28.268C10.426,29.2 12.114,29.534 13.738,29.196C15.361,28.858 16.786,27.875 17.699,26.465C18.613,25.055 18.94,23.332 18.609,21.675L20.108,21.675C19.796,23.335 20.143,25.054 21.073,26.453C22.002,27.852 23.439,28.816 25.065,29.134C26.692,29.453 28.376,29.098 29.747,28.149C31.117,27.201 32.063,25.735 32.375,24.075C33.187,24.263 34.029,24.283 34.849,24.134C35.67,23.985 36.453,23.669 37.152,23.207C37.852,22.744 38.453,22.143 38.921,21.439C39.39,20.735 39.715,19.943 39.879,19.109C40.042,18.275 40.04,17.416 39.874,16.583C39.707,15.749 39.378,14.958 38.907,14.257C38.436,13.555 37.832,12.956 37.131,12.497C36.43,12.037 35.645,11.725 34.824,11.579L34.824,11.578Z" fill="#2A9D8F"/>
<path d="M16,44.754L24.178,44.754L23.009,18L17.168,18L16,44.754Z" fill="#2A9D8F"/>
</svg>
